<svg width="61" height="61" viewBox="0 0 61 61" fill="none" xmlns="http://www.w3.org/2000/svg">
<g clip-path="url(#clip0_16_2)">
<path d="M12.7 17.7C10.7 17.7 9 19.3 9 21.4V49.7999C9 51.7999 10.6 53.5 12.7 53.5H40C41 53.5 41.9 53.1 42.6 52.4C43.3 51.7 43.7 50.7999 43.7 49.7999C43.7 47.7999 42.1 46.0999 40 46.0999H16.4V21.3C16.3 19.3 14.7 17.7 12.7 17.7Z" fill="#6FA048"/>
<path d="M9.89999 52.2C10.6 53 11.6 53.5 12.7 53.5H40C41 53.5 41.9 53.1 42.6 52.4C43.3 51.7 43.7 50.8 43.7 49.8C43.7 47.8 42.1 46.1 40 46.1H16.4" fill="#3F6CAB"/>
<path d="M25.9 20.6V27C29.5 26 33.3 27.9 34.5 31.5C35 32.8 35 34.2 34.7 35.5H41C41.2 33.5 41.1 31.5 40.4 29.5C38.2 23.2 32 19.7 25.9 20.6Z" fill="#CC9D47"/>
<path d="M25.8 8.19996V14.5C34.5 13.6 43 18.8 46 27.4C46.9 30 47.2 32.7 47 35.3H53.3C53.5 32 53.1 28.6 51.9 25.3C48 14.1 37.1 7.39996 25.8 8.19996Z" fill="#C8556B"/>
</g>
<defs>
<clipPath id="clip0_16_2">
<rect width="61" height="61" fill="white"/>
</clipPath>
</defs>
</svg>
