<svg width="336" height="92" viewBox="0 0 336 92" fill="none" xmlns="http://www.w3.org/2000/svg">
<g clip-path="url(#clip0_16_2)">
<path d="M317.5 69L327.459 79.5H307.541L317.5 69Z" fill="#596AD9"/>
<rect x="232.5" y="10.5" width="88.2414" height="67.6866" rx="13.5" fill="url(#paint0_linear_16_2)" stroke="#596AD9" stroke-width="3"/>
<path d="M126.3 32.1C124.6 32.1 123.2 33.5 123.2 35.2V47.5C123.2 52 121.4 54.2 117.9 54.2C114.4 54.2 112.6 52 112.6 47.5V35.2C112.6 33.5 111.2 32.1 109.5 32.1C107.8 32.1 106.4 33.5 106.4 35.2V47.7C106.4 50.2 106.7 52 107.2 53.2999C107.7 54.7 108.6 56 109.9 57.0999C112 58.8999 114.7 59.7999 117.9 59.7999C121.1 59.7999 123.8 58.8999 125.9 57.0999C127.2 56 128.1 54.7 128.6 53.2999C129.1 51.7 129.4 49.9 129.4 47.7V35.2C129.4 33.4 128.1 32.1 126.3 32.1ZM224.7 32.1C223.5 32.1 222.4 32.8 221.9 33.8L215 47.5L207.6 33.7C207.1 32.7 206 32.1 204.9 32.1H204.8C202.4 32.1 200.9 34.6 202.1 36.7L211.7 54L203.5 69.4C202.5 71.3 203.9 73.7 206.1 73.7H206.6C207.7 73.7 208.7 73.0999 209.2 72.0999L227.5 36.6C228.5 34.5 227 32.1 224.7 32.1ZM196.9 21.1C196.9 19.5 195.6 18.2 194 18.2C192.4 18.2 191.1 19.5 191.1 21.1V33.9C188.7 32.2 185.9 31.3 182.7 31.3C178.7 31.3 175.3 32.7 172.5 35.4C169.7 38.1 168.3 41.4 168.3 45.2999C168.3 49.4 169.7 52.8999 172.4 55.5999C175.1 58.3999 178.5 59.7 182.5 59.7C186.6 59.7 190 58.2999 192.8 55.5999C195.6 52.8999 197 49.5 197 45.5C197 45 197 44.4 196.9 43.9V21.1ZM188.5 51.7999C187 53.3999 185.1 54.0999 182.7 54.0999C180.3 54.0999 178.3 53.2999 176.9 51.7C175.5 50.1 174.7 48 174.7 45.2999C174.7 42.7999 175.4 40.7 176.9 39.2C178.4 37.6 180.3 36.7999 182.7 36.7999C185.1 36.7999 187.1 37.6 188.5 39.2C190 40.8 190.7 42.9 190.7 45.5C190.7 48.2 189.9 50.2999 188.5 51.7999ZM163.1 21.1C163.1 19.5 161.8 18.2 160.2 18.2C158.6 18.2 157.3 19.5 157.3 21.1V33.9C154.9 32.2 152.1 31.3 148.9 31.3C144.9 31.3 141.5 32.7 138.7 35.4C135.9 38.1 134.5 41.4 134.5 45.2999C134.5 49.4 135.9 52.8999 138.6 55.5999C141.3 58.3999 144.7 59.7 148.7 59.7C152.8 59.7 156.2 58.2999 159 55.5999C161.8 52.8999 163.2 49.5 163.2 45.5C163.2 45 163.2 44.4 163.1 43.9V21.1ZM154.7 51.7999C153.2 53.3999 151.3 54.0999 148.9 54.0999C146.5 54.0999 144.5 53.2999 143.1 51.7C141.7 50.1 140.9 48 140.9 45.2999C140.9 42.7999 141.6 40.7 143.1 39.2C144.6 37.6 146.5 36.7999 148.9 36.7999C151.3 36.7999 153.3 37.6 154.7 39.2C156.2 40.8 156.9 42.9 156.9 45.5C156.9 48.2 156.1 50.2999 154.7 51.7999ZM87.1 31.3C83.9 31.3 81.1 32.2 78.7 33.9V21.1C78.7 19.5 77.4 18.2 75.8 18.2C74.2 18.2 72.9 19.5 72.9 21.1V44C72.8 44.5 72.8 44.9999 72.8 45.5999C72.8 49.5999 74.2 53 77 55.7C79.8 58.4 83.2 59.7999 87.3 59.7999C91.3 59.7999 94.7 58.4 97.4 55.7C100.1 53 101.5 49.5 101.5 45.4C101.5 41.5 100.1 38.2 97.3 35.5C94.5 32.7 91.1 31.3 87.1 31.3ZM92.9 51.7999C91.4 53.3999 89.5 54.2 87.1 54.2C84.7 54.2 82.7 53.4 81.3 51.9C79.8 50.3 79.1 48.1999 79.1 45.5999C79.1 42.9999 79.8 40.9 81.3 39.2999C82.8 37.6999 84.7 36.9 87.1 36.9C89.5 36.9 91.4 37.6999 92.9 39.2999C94.4 40.9 95.1 42.9 95.1 45.4C95.1 48.1 94.4 50.2999 92.9 51.7999Z" fill="black"/>
<path d="M18.7 24.7C16.7 24.7 15 26.3 15 28.4V56.7999C15 58.7999 16.6 60.5 18.7 60.5H46C47 60.5 47.9 60.1 48.6 59.4C49.3 58.7 49.7 57.7999 49.7 56.7999C49.7 54.7999 48.1 53.0999 46 53.0999H22.4V28.3C22.3 26.3 20.7 24.7 18.7 24.7Z" fill="#6FA048"/>
<path d="M15.9 59.2C16.6 60 17.6 60.5 18.7 60.5H46C47 60.5 47.9 60.1 48.6 59.4C49.3 58.7 49.7 57.8 49.7 56.8C49.7 54.8 48.1 53.1 46 53.1H22.4" fill="#3F6CAB"/>
<path d="M31.9 27.6V34C35.5 33 39.3 34.9 40.5 38.5C41 39.8 41 41.2 40.7 42.5H47C47.2 40.5 47.1 38.5 46.4 36.5C44.2 30.2 38 26.7 31.9 27.6Z" fill="#CC9D47"/>
<path d="M31.8 15.2V21.5C40.5 20.6 49 25.8 52 34.4C52.9 37 53.2 39.7 53 42.3H59.3C59.5 39 59.1 35.6 57.9 32.3C54 21.1 43.1 14.4 31.8 15.2Z" fill="#C8556B"/>
<path d="M247.756 59.5423C246.294 59.5423 245.112 59.2998 244.209 58.8148C243.306 58.3298 242.64 57.6196 242.21 56.6842C241.78 55.7141 241.565 54.5708 241.565 53.2544V20.8475C242.104 16.9426 246.809 16.8696 247.498 20.8475V52.0313C247.498 52.7588 247.648 53.2785 247.949 53.5903C248.293 53.9021 248.68 54.058 249.11 54.058H249.626C249.798 54.0234 250.464 53.9887 250.765 53.9541C253.543 54.0848 254.041 57.4766 251.422 58.9005C251.038 59.1175 250.271 59.3511 249.755 59.4204C249.239 59.5243 248.573 59.5423 247.756 59.5423Z" fill="white" stroke="black" stroke-width="0.947814" stroke-linecap="round" stroke-linejoin="round"/>
<path d="M312.395 56.6148C312.395 61.4176 311.101 66.3996 308.619 68.9591C305.843 71.6008 303.301 73.1154 298.035 73.1154C294.552 73.1154 292.142 72.6965 290.106 71.7037C286.118 70.2923 287.02 65.2525 290.687 65.2225C293.733 66.2669 295.099 66.886 297.808 66.886C300.5 66.886 301.289 66.5325 302.77 65.2153C303.974 63.9891 304.808 62.127 304.808 60.0934V58.049H304.707C302.154 60.0134 300.15 60.9816 296.618 60.6249C293.166 60.2762 290.743 59.0377 288.809 56.7157C286.874 54.3937 285.906 51.2808 285.906 47.3771C285.906 43.0023 286.983 39.5277 289.137 36.9532C291.29 34.3788 295.054 32.0457 298.571 32.0457C301.717 32.0457 303.741 32.219 306.489 33.8617C308.335 35.0422 308.635 35.4877 309.592 36.4959C310.972 38.1536 311.248 38.8818 311.635 40.0644C312.139 41.5193 312.183 42.5477 312.395 44.1068L312.395 56.6148ZM304.909 47.15V45.1056C304.909 43.4734 304.421 42.0852 303.445 40.9411C302.486 39.78 301.233 39.1995 299.685 39.1995C297.919 39.1995 296.531 39.8894 295.521 41.2692C294.512 42.6489 294.007 44.5924 294.007 47.0995C294.007 49.2533 294.487 50.9611 295.446 52.2231C296.405 53.4682 297.717 54.0908 299.382 54.0908C301.031 54.0908 302.36 53.4598 303.37 52.1979C304.396 50.9191 304.909 49.2364 304.909 47.15Z" fill="white" stroke="black" stroke-width="1.0442" stroke-linecap="round" stroke-linejoin="round"/>
<path d="M268.824 31.467C264.824 31.467 261.424 32.867 258.624 35.567C255.824 38.267 254.424 41.567 254.424 45.467C254.424 49.567 255.824 53.067 258.524 55.767C261.224 58.567 264.624 59.867 268.624 59.867C272.724 59.867 276.124 58.467 278.924 55.767C281.724 53.067 283.124 49.667 283.124 45.667C283.124 41.667 281.724 38.267 279.024 35.567C276.324 32.867 272.824 31.467 268.824 31.467ZM274.724 51.967C273.224 53.567 271.324 54.267 268.924 54.267C266.524 54.267 264.524 53.467 263.124 51.867C261.724 50.267 260.924 48.167 260.924 45.467C260.924 42.967 261.624 40.867 263.124 39.367C264.624 37.767 266.524 36.967 268.924 36.967C271.324 36.967 273.324 37.767 274.724 39.367C276.224 40.967 276.924 43.067 276.924 45.667C276.824 48.367 276.124 50.467 274.724 51.967Z" fill="white" stroke="black"/>
</g>
<defs>
<linearGradient id="paint0_linear_16_2" x1="276.621" y1="9" x2="276.621" y2="79.6866" gradientUnits="userSpaceOnUse">
<stop stop-color="#9CF2FA"/>
<stop offset="0.899038" stop-color="#7AD9FF"/>
</linearGradient>
<clipPath id="clip0_16_2">
<rect width="336" height="92" fill="white"/>
</clipPath>
</defs>
</svg>
